<?xml version="1.0" encoding="UTF-8"?>
<!DOCTYPE svg PUBLIC "-//W3C//DTD SVG 1.1//EN" "http://www.w3.org/Graphics/SVG/1.1/DTD/svg11.dtd">
<!-- Creator: CorelDRAW 2019 (64-Bit) -->
<svg xmlns="http://www.w3.org/2000/svg" xml:space="preserve" width="133.648mm" height="60.7935mm" version="1.1" style="shape-rendering:geometricPrecision; text-rendering:geometricPrecision; image-rendering:optimizeQuality; fill-rule:evenodd; clip-rule:evenodd"
viewBox="0 0 9785.07 4451.02"
 xmlns:xlink="http://www.w3.org/1999/xlink"
 xmlns:xodm="http://www.corel.com/coreldraw/odm/2003">
 <defs>
  <style type="text/css">
   <![CDATA[
    .str0 {stroke:#373435;stroke-width:109.82;stroke-miterlimit:22.9256}
    .fil0 {fill:#FEFEFE}
    .fil1 {fill:#545454;fill-rule:nonzero}
    .fil2 {fill:#DB0303;fill-rule:nonzero}
   ]]>
  </style>
 </defs>
 <g id="Capa_x0020_1">
  <metadata id="CorelCorpID_0Corel-Layer"/>
  <rect class="fil0 str0" x="54.91" y="54.91" width="9675.25" height="4341.2"/>
  <path class="fil1" d="M4405.38 674.7l404.88 0 0 1845.96 -404.88 0 0 -729.86 -367.59 0 0 729.86 -404.89 0 0 -1845.96 404.89 0 0 759.16 367.59 0 0 -759.16zm644.62 0l404.89 0 0 1845.96 -404.89 0 0 -1845.96zm1345.18 426.19c0,-31.97 -7.55,-56.38 -22.65,-73.25 -15.1,-16.87 -43.95,-25.3 -86.57,-25.3l-191.79 0 0 1174.7 191.79 0c72.81,0 109.22,-40.84 109.22,-122.53l0 -953.62zm-700.56 -426.19l647.28 0c143.84,0 255.27,34.62 334.3,103.89 79.02,69.25 118.54,171.36 118.54,306.33l0 1001.56c0,289.46 -142.95,434.19 -428.86,434.19l-671.26 0 0 -1845.96zm1712.77 1180.03l0 665.93 -399.56 0 0 -1845.96 602 0c145.62,0 259.27,34.62 340.96,103.89 81.69,69.25 122.53,170.47 122.53,303.66l0 340.96c0,213.1 -72.81,346.29 -218.42,399.56l290.34 697.9 -439.51 0 -247.73 -665.93 -50.61 0zm0 -839.07l0 522.08 157.16 0c40.85,0 69.26,-8.87 85.24,-26.64 15.98,-17.75 23.97,-48.83 23.97,-93.23l0 -301c0,-39.07 -8.88,-65.7 -26.64,-79.91 -17.76,-14.2 -45.28,-21.31 -82.58,-21.31l-157.16 0zm1574.26 130.52c0,-88.79 -52.82,-133.19 -158.49,-133.19 -105.66,0 -158.49,44.4 -158.49,133.19l0 903c0,88.79 52.82,133.19 158.49,133.19 105.66,0 158.49,-44.4 158.49,-133.19l0 -903zm-716.54 -21.31c0,-145.62 47.06,-261.49 141.17,-347.61 94.12,-86.13 232.63,-129.19 415.54,-129.19 182.91,0 321.87,43.06 416.87,129.19 95,86.12 142.51,201.99 142.51,347.61l0 945.62c0,145.62 -47.5,261.49 -142.51,347.62 -95,86.12 -233.97,129.19 -416.87,129.19 -182.91,0 -321.42,-43.07 -415.54,-129.19 -94.12,-86.13 -141.17,-202 -141.17,-347.62l0 -945.62z"/>
  <polygon class="fil2" points="1708.44,679.51 3271.16,679.51 3271.16,1258.29 2376.27,1258.29 2376.27,1912.77 3150.96,1912.77 3150.96,2491.55 2376.27,2491.55 2376.27,3186.09 3271.16,3186.09 3271.16,3764.87 1708.44,3764.87 "/>
  <polygon class="fil1" points="1711.23,680.04 2387.96,680.04 2387.96,3765.4 1711.23,3765.4 1711.23,2545.5 1096.83,2545.5 1096.83,3765.4 420.1,3765.4 420.1,680.04 1096.83,680.04 1096.83,1948.91 1711.23,1948.91 "/>
  <path class="fil2" d="M3633.2 2661.5l549.58 0 0 203.55 -314.72 0 0 230.16 272.43 0 0 203.55 -272.43 0 0 244.26 314.72 0 0 203.55 -549.58 0 0 -1085.07zm1060.01 0l253.65 0 -233.3 544.88 233.3 540.18 -255.21 0 -100.21 -295.93 -106.47 295.93 -255.22 0 231.73 -540.18 -231.73 -544.88 253.65 0 108.04 299.06 101.77 -299.06zm898.74 0l0 203.55 -195.72 0 0 881.51 -237.99 0 0 -881.51 -195.72 0 0 -203.55 629.43 0zm78.28 0l237.99 0 0 1085.07 -237.99 0 0 -1085.07zm839.25 0l231.73 0 0 1085.07 -225.47 0c-154.48,-394.57 -243.73,-632.56 -267.74,-713.98 21.92,82.46 32.88,224.43 32.88,425.89l0 288.1 -231.73 0 0 -1085.07 231.73 0 142.48 363.26c60.54,155.53 101.25,273.48 122.13,353.86 -24.01,-101.25 -36.01,-249.47 -36.01,-444.67l0 -272.44zm356.99 256.79c0,-83.51 28.96,-148.49 86.9,-194.94 57.94,-46.46 145.35,-69.68 262.26,-69.68 77.24,0 143,7.31 197.28,21.92l0 216.07c-58.46,-17.75 -116.13,-26.61 -173.02,-26.61 -56.89,0 -93.68,6.52 -110.38,19.57 -16.71,13.05 -25.05,32.1 -25.05,57.15l0 526.09c0,50.1 39.4,75.16 118.21,75.16 78.81,0 143.79,-7.83 194.94,-23.49l0 211.37c-56.37,15.66 -124.74,23.49 -205.11,23.49 -116.91,0 -203.81,-22.96 -260.7,-68.89 -56.89,-45.93 -85.33,-110.65 -85.33,-194.15l0 -573.06zm660.74 -256.79l237.99 0 0 1085.07 -237.99 0 0 -1085.07zm784.44 277.14c0,-52.2 -31.06,-78.29 -93.16,-78.29 -62.11,0 -93.17,26.09 -93.17,78.29l0 530.79c0,52.19 31.06,78.28 93.17,78.28 62.1,0 93.16,-26.09 93.16,-78.28l0 -530.79zm-421.19 -12.53c0,-85.6 27.66,-153.7 82.98,-204.33 55.32,-50.63 136.74,-75.94 244.26,-75.94 107.51,0 189.19,25.31 245.04,75.94 55.84,50.63 83.77,118.73 83.77,204.33l0 555.84c0,85.59 -27.92,153.7 -83.77,204.33 -55.85,50.62 -137.53,75.94 -245.04,75.94 -107.52,0 -188.94,-25.32 -244.26,-75.94 -55.32,-50.63 -82.98,-118.74 -82.98,-204.33l0 -555.84zm1241.64 -264.62l231.73 0 0 1085.07 -225.47 0c-154.48,-394.57 -243.73,-632.56 -267.74,-713.98 21.92,82.46 32.88,224.43 32.88,425.89l0 288.1 -231.73 0 0 -1085.07 231.73 0 142.48 363.26c60.54,155.53 101.25,273.48 122.13,353.86 -24.01,-101.25 -36.01,-249.47 -36.01,-444.67l0 -272.44z"/>
  <polygon class="fil1" points="3391.54,1095.07 3391.54,3776.35 3494.99,3776.35 3494.99,665.73 3391.54,665.73 "/>
 </g>
</svg>
